<?xml version="1.0" standalone="no"?>
<!DOCTYPE svg PUBLIC "-//W3C//DTD SVG 20010904//EN"
 "http://www.w3.org/TR/2001/REC-SVG-20010904/DTD/svg10.dtd">
<svg version="1.0" xmlns="http://www.w3.org/2000/svg"
 width="1184.000000pt" height="1280.000000pt" viewBox="0 0 1184.000000 1280.000000"
 preserveAspectRatio="xMidYMid meet">
<metadata>
Created by potrace 1.15, written by Peter Selinger 2001-2017
</metadata>
<g transform="translate(0.000000,1280.000000) scale(0.100000,-0.100000)"
fill="#000000" stroke="none">
<path d="M3341 12787 c-60 -29 -282 -421 -415 -735 -77 -179 -159 -426 -211
-629 -37 -146 -55 -236 -101 -520 -5 -32 -6 -31 -72 67 -159 237 -400 453
-653 584 -113 60 -262 120 -320 131 l-36 7 -21 -74 c-120 -408 -83 -851 103
-1245 58 -121 134 -244 208 -335 26 -32 44 -58 40 -58 -5 0 -42 9 -83 20 -216
58 -373 25 -466 -97 -38 -50 -56 -123 -44 -176 4 -20 35 -77 68 -125 33 -48
195 -287 362 -532 l302 -445 -242 -7 c-533 -14 -986 -91 -1457 -247 -223 -74
-267 -93 -288 -125 -37 -57 -2 -100 202 -248 462 -335 988 -612 1548 -814 181
-66 383 -149 398 -163 4 -4 -88 -47 -205 -96 -253 -105 -644 -277 -746 -329
-84 -43 -147 -101 -157 -146 -5 -25 0 -46 26 -98 28 -57 34 -80 37 -158 7
-160 -42 -289 -216 -566 -176 -280 -299 -567 -336 -783 -9 -49 -16 -145 -16
-213 0 -285 79 -484 393 -984 177 -282 246 -409 295 -536 71 -187 85 -360 43
-556 -31 -145 -26 -323 14 -466 77 -279 279 -583 614 -922 64 -66 102 -111 96
-116 -6 -5 -115 -79 -243 -166 -241 -162 -479 -329 -736 -520 l-150 -110 40
-9 c55 -12 1170 0 1634 18 661 25 1282 55 1353 64 133 18 205 78 228 189 22
107 3 211 -85 457 -75 212 -70 373 16 462 97 100 409 168 663 144 261 -25 422
-67 925 -246 324 -115 358 -126 515 -170 246 -69 533 -123 799 -152 91 -9 166
-20 166 -23 0 -3 -29 -45 -65 -95 -127 -177 -180 -312 -180 -455 0 -87 3 -101
32 -161 61 -123 176 -198 383 -251 l115 -29 77 83 c68 74 78 82 95 71 96 -65
200 -97 318 -97 105 1 180 20 278 71 244 128 326 448 184 717 -32 60 -116 155
-172 194 -16 11 -28 22 -25 25 3 2 187 154 410 337 517 425 529 436 551 485
21 46 25 115 7 133 -7 7 -30 12 -53 12 -97 0 -165 86 -165 207 0 96 17 140 75
199 90 91 164 107 550 124 248 10 351 26 524 82 164 52 316 126 469 226 l52
34 -22 40 c-31 54 -205 218 -298 281 -41 28 -107 80 -145 116 -39 36 -114 96
-167 133 -54 37 -136 100 -183 140 -68 59 -85 78 -85 101 0 25 3 27 39 27 70
0 142 30 217 90 l70 57 255 12 c419 18 680 58 984 147 185 55 434 159 555 232
l30 19 -63 74 c-181 212 -500 404 -942 568 -206 76 -808 287 -865 303 -19 5
-120 36 -225 69 -104 33 -220 70 -258 82 -37 11 -64 24 -60 28 5 3 56 18 114
32 520 128 1135 374 1649 660 153 85 447 263 455 276 2 5 -54 36 -125 70 -540
257 -1007 395 -1565 463 -165 20 -647 17 -800 -5 -233 -34 -466 -53 -448 -37
4 4 46 22 93 40 126 50 475 227 630 320 289 174 684 454 939 666 24 20 -163
119 -257 137 -34 6 -62 14 -62 17 0 3 31 18 69 33 89 36 228 123 309 194 34
30 62 57 60 58 -6 6 -603 104 -847 140 -299 43 -725 96 -1006 125 -115 12
-231 24 -256 28 l-47 7 132 140 c72 77 262 282 421 455 160 173 358 384 440
470 83 85 166 175 186 200 80 99 114 206 86 273 -19 44 -15 43 -291 57 -504
24 -1101 4 -1589 -56 -71 -8 -130 -14 -131 -12 -2 2 42 68 98 148 243 349 459
735 634 1130 78 178 78 176 50 183 -75 19 -271 29 -452 24 -226 -6 -376 -28
-521 -75 -49 -17 -91 -29 -92 -28 -1 1 41 88 94 194 53 106 94 195 90 198 -9
9 -237 -69 -443 -152 -373 -149 -794 -366 -1077 -556 -49 -33 -91 -57 -93 -55
-3 3 6 43 20 88 107 354 112 747 17 1114 -42 157 -66 216 -107 256 -32 31 -41
34 -93 34 -51 0 -65 -5 -113 -38 -66 -45 -375 -357 -548 -553 -232 -261 -460
-550 -638 -807 -41 -59 -75 -107 -77 -105 -1 2 -39 84 -84 183 -172 376 -424
844 -646 1195 -120 189 -141 217 -176 236 -33 16 -55 17 -88 1z m698 -5219
c-64 -125 -297 -482 -342 -523 -6 -5 -4 0 4 11 210 314 262 393 303 467 50 89
73 119 35 45z m821 -43 c0 -2 -10 -9 -22 -15 -22 -11 -22 -10 -4 4 21 17 26
19 26 11z m-50 -30 c0 -2 -10 -9 -22 -15 -22 -11 -22 -10 -4 4 21 17 26 19 26
11z m-50 -30 c0 -2 -10 -9 -22 -15 -22 -11 -22 -10 -4 4 21 17 26 19 26 11z
m-50 -29 c0 -2 -33 -23 -72 -47 -69 -40 -491 -304 -550 -343 -16 -10 -28 -16
-28 -13 0 9 633 407 647 407 2 0 3 -2 3 -4z m-830 -279 c0 -2 -10 -12 -22 -23
l-23 -19 19 23 c18 21 26 27 26 19z m90 -41 c0 -2 -8 -10 -17 -17 -16 -13 -17
-12 -4 4 13 16 21 21 21 13z m-50 -49 c0 -2 -12 -14 -27 -28 l-28 -24 24 28
c23 25 31 32 31 24z m-266 -82 c-9 -14 -19 -23 -22 -20 -5 4 26 45 35 45 2 0
-4 -11 -13 -25z m206 11 c0 -2 -8 -10 -17 -17 -16 -13 -17 -12 -4 4 13 16 21
21 21 13z m-540 -26 c-8 -5 -20 -37 -27 -72 l-12 -63 6 65 c6 75 8 80 31 80
15 0 15 -2 2 -10z m2570 -221 c16 -48 31 -104 35 -125 3 -22 -10 11 -29 71
-19 61 -46 139 -61 174 -14 36 -25 67 -24 70 2 13 53 -110 79 -190z m-2112
126 c-6 -14 -13 -23 -15 -21 -5 5 15 46 22 46 3 0 -1 -11 -7 -25z m-501 -77
c-3 -7 -5 -2 -5 12 0 14 2 19 5 13 2 -7 2 -19 0 -25z m2683 -526 c1 -96 -1
-176 -4 -180 -3 -3 -6 57 -6 134 0 76 -2 177 -5 224 -3 69 -2 77 5 40 5 -25
10 -123 10 -218z m-13 -239 c-3 -10 -5 -2 -5 17 0 19 2 27 5 18 2 -10 2 -26 0
-35z m-10 -65 c-3 -8 -6 -5 -6 6 -1 11 2 17 5 13 3 -3 4 -12 1 -19z m-10 -40
c-3 -8 -6 -5 -6 6 -1 11 2 17 5 13 3 -3 4 -12 1 -19z m-42 -155 c-51 -152
-158 -352 -240 -448 -14 -16 4 15 39 71 87 134 160 280 193 386 16 48 29 84
31 79 2 -5 -9 -45 -23 -88z m-2818 -85 c-3 -7 -5 -2 -5 12 0 14 2 19 5 13 2
-7 2 -19 0 -25z m-20 -100 c-3 -7 -5 -2 -5 12 0 14 2 19 5 13 2 -7 2 -19 0
-25z m-10 -50 c-3 -8 -6 -5 -6 6 -1 11 2 17 5 13 3 -3 4 -12 1 -19z m-10 -60
c-3 -7 -5 -2 -5 12 0 14 2 19 5 13 2 -7 2 -19 0 -25z m-18 -102 c-6 -42 -14
-75 -16 -72 -3 2 1 39 8 80 6 42 14 75 16 72 3 -2 -1 -39 -8 -80z m-446 -82
c70 -7 82 -18 50 -46 -10 -8 -107 -48 -216 -88 -214 -79 -217 -79 -217 -15 0
38 29 85 72 118 62 47 98 51 311 31z m398 -214 c-16 -102 -29 -174 -30 -160 0
14 10 97 24 185 13 88 25 167 26 175 1 13 2 13 5 0 2 -8 -9 -98 -25 -200z
m-34 -242 c-2 -13 -4 -5 -4 17 -1 22 1 32 4 23 2 -10 2 -28 0 -40z m3228 -23
c122 -42 193 -83 224 -129 25 -38 26 -45 25 -170 -1 -169 -24 -250 -138 -481
-175 -354 -451 -778 -814 -1250 -180 -233 -554 -696 -559 -692 -7 7 25 133 59
237 17 52 77 203 133 335 56 132 106 250 110 263 4 13 9 22 11 19 2 -2 -32
-98 -77 -213 -120 -309 -209 -549 -209 -562 0 -27 24 -6 107 96 127 156 500
639 622 805 140 193 354 515 441 667 78 136 212 407 253 510 29 75 57 201 57
259 0 68 -20 138 -51 181 -56 78 -225 134 -381 128 -80 -3 -89 -5 -117 -32
-45 -43 -61 -85 -150 -401 -85 -302 -190 -639 -196 -633 -2 2 25 98 61 213 57
183 117 399 195 693 25 98 53 135 124 169 65 31 156 27 270 -12z m-3238 -62
c-3 -10 -5 -2 -5 17 0 19 2 27 5 18 2 -10 2 -26 0 -35z m-10 -105 c-2 -13 -4
-3 -4 22 0 25 2 35 4 23 2 -13 2 -33 0 -45z m-10 -120 c-2 -13 -4 -3 -4 22 0
25 2 35 4 23 2 -13 2 -33 0 -45z m2633 -73 c0 -5 -5 -3 -10 5 -5 8 -10 20 -10
25 0 6 5 3 10 -5 5 -8 10 -19 10 -25z m-2643 -378 c-1 -67 -3 -9 -3 128 0 138
2 192 3 122 2 -71 2 -183 0 -250z m-1242 229 c160 -47 299 -126 328 -189 11
-22 19 -92 27 -222 6 -104 17 -226 25 -270 18 -99 18 -131 0 -50 -18 78 -42
273 -51 403 -6 93 -9 108 -38 150 -36 54 -108 101 -201 132 -94 31 -275 60
-379 60 -66 0 -87 3 -76 11 9 6 63 8 145 6 100 -4 151 -11 220 -31z m-443 -16
c-3 -18 3 -42 15 -62 10 -18 72 -148 137 -288 434 -933 589 -1237 824 -1610
113 -181 159 -244 275 -383 88 -104 233 -245 243 -235 7 7 -104 289 -236 603
-121 286 -190 458 -186 462 2 2 9 -11 16 -29 8 -18 56 -132 108 -253 238 -555
349 -831 339 -842 -8 -7 -134 106 -217 193 -255 268 -433 551 -770 1229 -221
443 -583 1222 -574 1236 13 22 30 8 26 -21z m5897 -36 c34 -20 61 -63 61 -96
0 -33 -294 -471 -559 -833 -425 -582 -838 -1015 -1246 -1309 -55 -40 -106 -75
-113 -80 -7 -4 43 75 112 176 145 215 275 423 398 637 96 169 118 201 69 103
-43 -86 -136 -241 -311 -522 -162 -259 -189 -307 -168 -294 257 150 742 643
1159 1179 187 240 414 569 558 810 82 137 88 172 38 209 -26 19 -42 21 -140
20 l-112 -1 65 13 c78 15 150 11 189 -12z m-417 -15 c-91 -11 -154 -35 -196
-72 -35 -32 -96 -145 -211 -399 -27 -59 -50 -106 -52 -104 -2 1 16 45 38 97
23 52 68 159 100 238 33 80 67 153 77 164 50 56 136 86 242 85 l65 -1 -63 -8z
m-5764 -221 c-9 -7 -17 -19 -20 -26 -2 -9 -11 -5 -27 12 l-24 26 43 0 c37 0
41 -2 28 -12z m262 6 c34 -6 36 -9 69 -97 176 -472 431 -994 718 -1472 46 -77
74 -129 63 -116 -26 30 -131 205 -233 386 -172 307 -414 824 -547 1173 l-43
112 -56 1 c-31 0 -76 4 -101 8 -43 8 -42 9 25 10 39 0 86 -2 105 -5z m-221
-108 c-3 -3 -11 5 -18 17 -13 21 -12 21 5 5 10 -10 16 -20 13 -22z m1938 -63
c-2 -16 -4 -5 -4 22 0 28 2 40 4 28 2 -13 2 -35 0 -50z m10 -105 c-2 -13 -4
-3 -4 22 0 25 2 35 4 23 2 -13 2 -33 0 -45z m10 -80 c-2 -13 -4 -5 -4 17 -1
22 1 32 4 23 2 -10 2 -28 0 -40z m-1621 -400 c119 -238 246 -487 282 -553 148
-273 314 -526 459 -702 145 -176 436 -444 519 -479 59 -25 114 -14 114 23 0 7
-27 30 -59 53 -83 56 -82 63 2 20 64 -32 72 -40 75 -68 4 -38 -27 -72 -65 -72
-59 0 -191 100 -387 290 -286 278 -484 555 -729 1020 -94 180 -440 900 -431
900 2 0 101 -195 220 -432z m1631 335 c-3 -10 -5 -4 -5 12 0 17 2 24 5 18 2
-7 2 -21 0 -30z m10 -60 c-3 -10 -5 -4 -5 12 0 17 2 24 5 18 2 -7 2 -21 0 -30z
m10 -55 c-3 -7 -5 -2 -5 12 0 14 2 19 5 13 2 -7 2 -19 0 -25z m-900 -10 c-3
-7 -5 -2 -5 12 0 14 2 19 5 13 2 -7 2 -19 0 -25z m994 -325 c106 -321 268
-611 471 -848 256 -297 568 -487 978 -595 51 -13 60 -18 30 -14 -71 10 -261
70 -368 117 -564 249 -1010 832 -1182 1547 -11 47 -20 92 -19 100 0 8 13 -36
29 -97 16 -62 43 -157 61 -210z m-984 285 c-3 -8 -6 -5 -6 6 -1 11 2 17 5 13
3 -3 4 -12 1 -19z m4002 -133 c-71 -149 -184 -362 -200 -380 -5 -5 53 113 128
262 76 149 139 270 141 269 1 -2 -30 -69 -69 -151z m-3992 93 c-3 -8 -6 -5 -6
6 -1 11 2 17 5 13 3 -3 4 -12 1 -19z m3780 -275 c-43 -77 -272 -461 -280 -468
-12 -13 5 21 63 120 77 132 112 195 107 195 -2 0 -43 -47 -91 -105 -48 -57
-92 -107 -98 -111 -6 -4 59 79 143 184 138 171 170 209 156 185z m-3603 -263
c5 -17 4 -20 -2 -10 -5 8 -13 26 -16 40 -5 17 -4 20 2 10 5 -8 13 -26 16 -40z
m26 -65 c0 -5 -5 -3 -10 5 -5 8 -10 20 -10 25 0 6 5 3 10 -5 5 -8 10 -19 10
-25z m3270 -58 c0 -2 -10 -12 -22 -23 l-23 -19 19 23 c18 21 26 27 26 19z
m-40 -50 c0 -2 -10 -12 -22 -23 l-23 -19 19 23 c18 21 26 27 26 19z m-80 -97
c-23 -27 -44 -50 -47 -50 -3 0 14 23 37 50 23 28 44 50 47 50 3 0 -14 -22 -37
-50z m130 30 c-6 -11 -13 -20 -16 -20 -2 0 0 9 6 20 6 11 13 20 16 20 2 0 0
-9 -6 -20z m-30 -50 c-6 -11 -13 -20 -16 -20 -2 0 0 9 6 20 6 11 13 20 16 20
2 0 0 -9 -6 -20z m580 -39 c0 -57 -27 -209 -41 -231 -8 -12 -9 -11 -5 5 20 77
27 128 26 185 -2 87 -2 90 10 90 6 0 10 -22 10 -49z m-610 -11 c-6 -11 -13
-20 -16 -20 -2 0 0 9 6 20 6 11 13 20 16 20 2 0 0 -9 -6 -20z m-120 7 c0 -2
-10 -12 -22 -23 l-23 -19 19 23 c18 21 26 27 26 19z m668 -27 c-7 -11 -17 -20
-22 -20 -5 0 -1 9 9 20 10 11 20 20 22 20 2 0 -2 -9 -9 -20z m-578 -30 c-6
-11 -13 -20 -16 -20 -2 0 0 9 6 20 6 11 13 20 16 20 2 0 0 -9 -6 -20z m-130 7
c0 -2 -10 -12 -22 -23 l-23 -19 19 23 c18 21 26 27 26 19z m660 -31 c0 -2 -8
-10 -17 -17 -16 -13 -17 -12 -4 4 13 16 21 21 21 13z m-560 -26 c-6 -11 -13
-20 -16 -20 -2 0 0 9 6 20 6 11 13 20 16 20 2 0 0 -9 -6 -20z m-150 -4 c0 -2
-8 -10 -17 -17 -16 -13 -17 -12 -4 4 13 16 21 21 21 13z m80 -116 c-6 -11 -13
-20 -16 -20 -2 0 0 9 6 20 6 11 13 20 16 20 2 0 0 -9 -6 -20z m-3290 -10 c6
-11 8 -20 6 -20 -3 0 -10 9 -16 20 -6 11 -8 20 -6 20 3 0 10 -9 16 -20z m3260
-40 c-6 -11 -13 -20 -16 -20 -2 0 0 9 6 20 6 11 13 20 16 20 2 0 0 -9 -6 -20z
m-30 -50 c-6 -11 -13 -20 -16 -20 -2 0 0 9 6 20 6 11 13 20 16 20 2 0 0 -9 -6
-20z m-3110 -95 c30 -44 89 -129 132 -188 43 -60 74 -105 67 -102 -23 15 -211
282 -263 375 -21 37 15 -11 64 -85z m3080 45 c-6 -11 -13 -20 -16 -20 -2 0 0
9 6 20 6 11 13 20 16 20 2 0 0 -9 -6 -20z m-30 -50 c-6 -11 -13 -20 -16 -20
-2 0 0 9 6 20 6 11 13 20 16 20 2 0 0 -9 -6 -20z m734 -2 c-62 -107 -171 -224
-267 -290 -67 -46 -188 -104 -232 -113 -16 -3 -7 3 20 13 179 68 339 193 442
349 20 29 38 53 40 53 2 0 1 -6 -3 -12z m-3549 -318 c10 -11 16 -20 13 -20 -3
0 -13 9 -23 20 -10 11 -16 20 -13 20 3 0 13 -9 23 -20z m96 -97 c13 -16 12
-17 -3 -4 -10 7 -18 15 -18 17 0 8 8 3 21 -13z m2082 0 c-7 -2 -19 -2 -25 0
-7 3 -2 5 12 5 14 0 19 -2 13 -5z m834 1 c-3 -3 -12 -4 -19 -1 -8 3 -5 6 6 6
11 1 17 -2 13 -5z m-774 -11 c-7 -2 -19 -2 -25 0 -7 3 -2 5 12 5 14 0 19 -2
13 -5z m730 0 c-7 -2 -19 -2 -25 0 -7 3 -2 5 12 5 14 0 19 -2 13 -5z m-656 -9
c-3 -3 -12 -4 -19 -1 -8 3 -5 6 6 6 11 1 17 -2 13 -5z m578 -5 c-22 -4 -65 -7
-95 -7 l-55 1 60 7 c33 4 76 7 95 7 l35 1 -40 -9z m-292 -16 c-7 -2 -19 -2
-25 0 -7 3 -2 5 12 5 14 0 19 -2 13 -5z m110 0 c-18 -2 -48 -2 -65 0 -18 2 -4
4 32 4 36 0 50 -2 33 -4z m-3183 -819 c-30 -8 -95 -39 -145 -68 -106 -63 -135
-78 -135 -72 0 7 229 138 258 146 15 5 38 8 52 8 14 1 0 -6 -30 -14z m91 -34
c-13 -11 -28 -20 -33 -20 -6 0 0 9 13 20 13 10 29 19 34 19 6 0 -1 -9 -14 -19z
m338 -4 c-2 -2 -22 -6 -44 -9 -28 -5 -34 -4 -20 3 19 8 73 14 64 6z m108 -63
c7 -18 12 -58 12 -90 l-2 -58 -7 74 c-6 52 -15 83 -31 105 -17 23 -18 27 -4
16 10 -8 24 -29 32 -47z m-827 -48 c0 -2 -10 -9 -22 -15 -22 -11 -22 -10 -4 4
21 17 26 19 26 11z m340 -25 c-19 -11 -39 -19 -45 -19 -5 0 6 8 25 19 19 11
40 19 45 19 6 0 -6 -8 -25 -19z m-90 -40 c-19 -11 -39 -19 -45 -19 -5 0 6 8
25 19 19 11 40 19 45 19 6 0 -6 -8 -25 -19z m-74 -35 c-11 -8 -25 -15 -30 -15
-6 1 0 7 14 15 32 19 40 18 16 0z m5584 -9 c0 -2 -13 -9 -30 -15 -35 -12 -41
-5 -7 9 25 10 37 12 37 6z m100 -66 c11 -22 20 -50 19 -62 0 -15 -5 -8 -14 21
-7 24 -26 57 -42 74 -24 26 -25 28 -6 18 13 -6 32 -29 43 -51z m565 20 c18
-11 36 -28 40 -38 4 -12 -3 -9 -22 9 -15 15 -37 31 -48 37 -11 6 -16 12 -11
12 5 0 23 -9 41 -20z m-322 -20 c-29 -17 -64 -47 -78 -67 -14 -21 -25 -32 -25
-26 0 20 60 83 99 103 58 31 61 23 4 -10z m-486 -32 c-19 -24 -44 -59 -56 -78
-11 -19 -21 -30 -21 -24 0 14 45 81 78 117 39 41 38 33 -1 -15z m-5777 -72 c0
-3 -15 -14 -32 -26 l-33 -22 30 26 c31 27 35 29 35 22z m-140 -11 c0 -7 -74
-55 -85 -55 -5 0 10 14 35 30 47 31 50 33 50 25z m6297 -17 c-3 -8 -6 -5 -6 6
-1 11 2 17 5 13 3 -3 4 -12 1 -19z m-5199 5 c-10 -2 -28 -2 -40 0 -13 2 -5 4
17 4 22 1 32 -1 23 -4z m5079 -45 c-3 -7 -5 -2 -5 12 0 14 2 19 5 13 2 -7 2
-19 0 -25z m-6426 9 c-6 -8 -8 -17 -4 -20 3 -4 1 -7 -5 -7 -20 0 -23 19 -5 29
24 14 27 13 14 -2z m122 -24 c-7 -2 -19 -2 -25 0 -7 3 -2 5 12 5 14 0 19 -2
13 -5z m5982 -75 c3 -7 -1 -4 -9 6 -9 11 -16 29 -15 40 1 17 2 16 9 -6 4 -14
11 -32 15 -40z m290 2 c-18 -34 -90 -110 -105 -110 -5 0 13 20 39 45 27 25 54
59 61 76 7 16 15 28 17 25 2 -2 -3 -18 -12 -36z m648 -1 c-11 -11 -37 -22 -59
-24 l-39 -5 45 12 c30 9 48 21 55 36 5 12 12 17 14 11 2 -6 -5 -20 -16 -30z
m-447 -21 l29 -33 -32 29 c-18 17 -33 31 -33 33 0 8 8 1 36 -29z m200 -33
c-11 -8 -27 -15 -35 -14 -9 0 -2 7 14 14 39 18 45 18 21 0z m-561 -43 c11 -6
15 -12 8 -12 -7 0 -22 10 -35 23 -13 12 -17 17 -8 11 8 -6 24 -16 35 -22z"/>
</g>
</svg>
